<svg width="145" height="141" viewBox="0 0 145 141" fill="none" xmlns="http://www.w3.org/2000/svg">
<path d="M55.3537 68.0284C53.7126 66.2594 51.0422 65.9149 49.0058 67.2094L15.9376 88.2306C11.6071 90.9834 13.7376 97.6936 18.8629 97.4443L69.1624 94.9972C73.4072 94.7907 75.4753 89.7182 72.585 86.6026L55.3537 68.0284Z" fill="#COLOR_SECONDARY"/>
<path d="M88.7545 68.0284C90.3957 66.2594 93.0661 65.9149 95.1025 67.2094L128.171 88.2306C132.501 90.9834 130.371 97.6936 125.245 97.4443L74.9459 94.9972C70.701 94.7907 68.6329 89.7182 71.5233 86.6026L88.7545 68.0284Z" fill="#COLOR_SECONDARY"/>
<path d="M71.5 126C90.0015 126 105 110.106 105 90.5C105 70.8939 90.0015 55 71.5 55C52.9985 55 38 70.8939 38 90.5C38 110.106 52.9985 126 71.5 126Z" fill="#COLOR_MAIN"/>
<path d="M107.982 14.3491C110.321 13.8649 112.261 16.1761 111.378 18.3958L103.643 37.8391C102.803 39.9484 100.016 40.3975 98.5569 38.6585L85.8009 23.4565C84.3417 21.7175 85.268 19.0505 87.491 18.5904L107.982 14.3491Z" fill="#COLOR_SECONDARY"/>
<path d="M33.152 18.3958C32.269 16.1761 34.2083 13.8649 36.5476 14.3491L57.0387 18.5904C59.2617 19.0505 60.188 21.7175 58.7287 23.4565L45.9727 38.6585C44.5135 40.3975 41.7263 39.9484 40.8871 37.8391L33.152 18.3958Z" fill="#COLOR_SECONDARY"/>
<path d="M72 71C88.5685 71 102 57.5685 102 41C102 24.4315 88.5685 11 72 11C55.4315 11 42 24.4315 42 41C42 57.5685 55.4315 71 72 71Z" fill="#COLOR_SECONDARY"/>
<path d="M91.1797 18C97.7909 23.503 102 31.7932 102 41.0674C102 57.6359 88.5685 71.0674 72 71.0674C55.4315 71.0674 42 57.6359 42 41.0674C42 32.0823 45.9507 24.0206 52.209 18.5225C52.3869 18.7313 52.5859 18.9319 52.8076 19.1211L68.2549 32.2988C70.1243 33.8937 72.8757 33.8937 74.7451 32.2988L90.1924 19.1211C90.5932 18.7791 90.92 18.4007 91.1797 18Z" fill="#COLOR_MAIN"/>
<path d="M88.8481 136.709C94.287 137.668 100.827 126.364 103.455 111.46C106.083 96.5554 103.804 83.6958 98.3649 82.7367C92.926 81.7777 86.3864 93.0824 83.7584 107.987C81.1304 122.891 83.4091 135.75 88.8481 136.709Z" fill="#COLOR_MAIN"/>
<path d="M55.0881 138.481C60.527 137.522 62.42 122.475 59.3162 104.872C56.2123 87.2698 49.2871 73.7774 43.8481 74.7364C38.4092 75.6955 36.5162 90.7427 39.62 108.345C42.7238 125.948 49.6491 139.44 55.0881 138.481Z" fill="#COLOR_MAIN"/>
<path d="M71 121C82.598 121 92 109.807 92 96C92 82.1929 82.598 71 71 71C59.402 71 50 82.1929 50 96C50 109.807 59.402 121 71 121Z" fill="#COLOR_ACCENT"/>
<path d="M91 140C94.866 140 98 137.985 98 135.5C98 133.015 94.866 131 91 131C87.134 131 84 133.015 84 135.5C84 137.985 87.134 140 91 140Z" fill="#COLOR_ACCENT"/>
<path d="M53 140C56.866 140 60 137.985 60 135.5C60 133.015 56.866 131 53 131C49.134 131 46 133.015 46 135.5C46 137.985 49.134 140 53 140Z" fill="#COLOR_ACCENT"/>
<path d="M90.85 41.2C90.85 36.8802 77.65 36.9868 77.65 41.2M65.2 41.2C65.2 36.8802 52 36.9868 52 41.2" stroke="#COLOR_SECONDARY" stroke-width="2"/>
<path d="M85 58.5C79 59 72.5871 58.8656 72 55" stroke="#COLOR_ACCENT" stroke-width="2"/>
<path d="M72 55C72 59.1322 64.5 59 59 58.5" stroke="#COLOR_ACCENT" stroke-width="2"/>
<path d="M70.2679 54C71.0378 55.3333 72.9623 55.3333 73.7321 54L76.3301 49.5C77.0999 48.1667 76.1377 46.5 74.5981 46.5H69.4019C67.8623 46.5 66.9001 48.1667 67.6699 49.5L70.2679 54Z" fill="#COLOR_ACCENT"/>
</svg>
