<svg width="144" height="141" viewBox="0 0 144 141" fill="none" xmlns="http://www.w3.org/2000/svg">
<path d="M55.3537 68.0284C53.7126 66.2594 51.0422 65.9149 49.0058 67.2094L15.9375 88.2306C11.6071 90.9834 13.7376 97.6936 18.8628 97.4443L69.1624 94.9972C73.4072 94.7907 75.4753 89.7182 72.5849 86.6026L55.3537 68.0284Z" fill="#COLOR_SECONDARY"/>
<path d="M88.7545 68.0284C90.3957 66.2594 93.0661 65.9149 95.1025 67.2094L128.171 88.2306C132.501 90.9834 130.371 97.6936 125.245 97.4443L74.9459 94.9972C70.701 94.7907 68.6329 89.7182 71.5233 86.6026L88.7545 68.0284Z" fill="#COLOR_SECONDARY"/>
<ellipse cx="71.5" cy="90.5" rx="33.5" ry="35.5" fill="#COLOR_MAIN"/>
<path d="M107.982 14.3491C110.321 13.8649 112.261 16.1761 111.378 18.3958L103.643 37.8391C102.803 39.9484 100.016 40.3975 98.5569 38.6585L85.8009 23.4565C84.3417 21.7175 85.268 19.0505 87.491 18.5904L107.982 14.3491Z" fill="#COLOR_SECONDARY"/>
<path d="M33.152 18.3958C32.269 16.1761 34.2083 13.8649 36.5476 14.3491L57.0387 18.5904C59.2617 19.0505 60.188 21.7175 58.7287 23.4565L45.9727 38.6585C44.5135 40.3975 41.7263 39.9484 40.8871 37.8391L33.152 18.3958Z" fill="#COLOR_SECONDARY"/>
<circle cx="72" cy="41" r="30" fill="#COLOR_SECONDARY"/>
<path d="M91.1797 18C97.7909 23.503 102 31.7932 102 41.0674C102 57.6359 88.5685 71.0674 72 71.0674C55.4315 71.0674 42 57.6359 42 41.0674C42 32.0823 45.9507 24.0206 52.209 18.5225C52.3869 18.7313 52.5859 18.9319 52.8076 19.1211L68.2549 32.2988C70.1243 33.8937 72.8757 33.8937 74.7451 32.2988L90.1924 19.1211C90.5932 18.7791 90.92 18.4007 91.1797 18Z" fill="#COLOR_MAIN"/>
<ellipse cx="93.6065" cy="109.723" rx="10" ry="27.4026" transform="rotate(10 93.6065 109.723)" fill="#COLOR_MAIN"/>
<ellipse cx="49.4681" cy="106.609" rx="10" ry="32.3642" transform="rotate(-10 49.4681 106.609)" fill="#COLOR_MAIN"/>
<ellipse cx="71" cy="96" rx="21" ry="25" fill="#COLOR_ACCENT"/>
<ellipse cx="91" cy="135.5" rx="7" ry="4.5" fill="#COLOR_ACCENT"/>
<ellipse cx="53" cy="135.5" rx="7" ry="4.5" fill="#COLOR_ACCENT"/>
<path d="M52 38C52 42.3198 65.2 42.2132 65.2 38M77.65 38C77.65 42.3198 90.85 42.2132 90.85 38" stroke="#COLOR_SECONDARY" stroke-width="2"/>
<path d="M70.2679 54C71.0377 55.3333 72.9622 55.3333 73.732 54L76.3301 49.5C77.0999 48.1667 76.1377 46.5 74.5981 46.5H69.4019C67.8623 46.5 66.9001 48.1667 67.6699 49.5L70.2679 54Z" fill="#COLOR_ACCENT"/>
<path d="M72.6246 53.1491L64.9642 59.5769" stroke="#COLOR_ACCENT" stroke-width="3" stroke-linecap="round"/>
<path d="M71.0358 53.1491L78.6963 59.5769" stroke="#COLOR_ACCENT" stroke-width="3" stroke-linecap="round"/>
<path d="M91.5 39L95 46.92H88L91.5 39Z" fill="#COLOR_SECONDARY"/>
<ellipse cx="91.5" cy="47.58" rx="3.5" ry="2.42" fill="#COLOR_SECONDARY"/>
</svg>
